<svg fill="#FFFFFF" xmlns="http://www.w3.org/2000/svg"  viewBox="0 0 50 50" width="50px" height="50px"><path d="M 9 4 C 6.2504839 4 4 6.2504839 4 9 L 4 41 C 4 43.749516 6.2504839 46 9 46 L 41 46 C 43.749516 46 46 43.749516 46 41 L 46 9 C 46 6.2504839 43.749516 4 41 4 L 9 4 z M 9 6 L 41 6 C 42.668484 6 44 7.3315161 44 9 L 44 41 C 44 42.668484 42.668484 44 41 44 L 9 44 C 7.3315161 44 6 42.668484 6 41 L 6 9 C 6 7.3315161 7.3315161 6 9 6 z M 35.015625 12 A 1.0001 1.0001 0 0 0 34.757812 12.029297 L 26.757812 14.029297 A 1.0001 1.0001 0 0 0 26.101562 15.439453 C 26.541577 16.340118 27 17.494776 27 19 C 27 20.929343 25.846954 23.896821 24.576172 26.552734 L 22.992188 13.875 A 1.0001 1.0001 0 0 0 21.875 13.005859 L 13.875 14.007812 A 1.0001 1.0001 0 0 0 13.009766 15.134766 L 16.009766 37.134766 A 1.0001 1.0001 0 0 0 17 38 L 28 38 A 1.0001 1.0001 0 0 0 28.789062 37.613281 C 32.930502 32.283606 37 24.760794 37 18.585938 C 37 16.740219 36.951507 14.251453 35.849609 12.472656 A 1.0001 1.0001 0 0 0 35.015625 12 z M 34.34375 14.195312 C 34.76935 15.335743 35 17.108033 35 18.585938 C 35 23.718015 31.33623 30.919236 27.476562 36 L 17.873047 36 L 15.126953 15.867188 L 21.132812 15.117188 L 23.007812 30.125 A 1.0001 1.0001 0 0 0 24.847656 30.53125 C 26.763056 27.482075 29 22.588998 29 19 C 29 17.659506 28.691096 16.60617 28.34375 15.695312 L 34.34375 14.195312 z"/></svg>
